<svg width="226" height="256" viewBox="0 0 226 256" fill="none" xmlns="http://www.w3.org/2000/svg">
<path d="M141.241 126.298C142.914 125.201 142.913 125.2 142.912 125.199L142.911 125.197L142.907 125.191L142.896 125.175C142.887 125.162 142.876 125.145 142.862 125.124C142.834 125.083 142.795 125.027 142.745 124.956C142.645 124.815 142.5 124.616 142.31 124.369C141.929 123.875 141.365 123.186 140.609 122.366C139.096 120.727 136.808 118.564 133.665 116.407C127.363 112.081 117.668 107.813 104.017 107.813C93.7289 107.813 81.0758 112.297 69.8031 121.694C59.6267 130.152 51.7836 145.954 45.9433 164.1C40.0737 182.337 36.1167 203.301 33.926 222.465L33.913 222.579V222.693V224.306V226.306H35.913H102.528C130.446 226.306 151.754 217.984 166.036 201.281C180.268 184.636 187.237 159.994 187.237 127.929C187.237 95.8634 180.25 71.2258 166.009 54.5855C151.718 37.8875 130.41 29.5701 102.528 29.5701H35.913H33.913V29.7297H33.3882L33.5652 31.8928C35.217 52.0775 39.1984 72.0021 45.429 91.2692C37.9109 99.2117 31.3076 107.969 25.7411 117.376C14.3856 92.4108 8.45088 63.864 5.35857 41.1231C3.74253 29.2388 2.90702 18.9732 2.47566 11.6822C2.26001 8.03728 2.14546 5.13733 2.08485 3.15201C2.07338 2.77619 2.06384 2.43317 2.05591 2.1241L100.737 2C142.061 2 172.577 13.915 192.78 35.4211C213.003 56.9485 223.174 88.3838 223.174 127.982C223.174 167.581 213.008 199.025 192.789 220.562C172.59 242.076 142.079 254 100.755 254H2.07532C2.10904 253.221 2.15625 252.23 2.22124 251.046C2.39859 247.813 2.70827 243.14 3.23713 237.391C4.29513 225.89 6.2289 210.1 9.73029 192.941C16.7608 158.485 30.0115 119.036 54.7106 97.3477L54.7117 97.3468C64.4 88.8269 79.2558 82.8966 95.4354 81.1262C111.596 79.3578 128.86 81.7646 143.332 89.6594L143.338 89.6622C156.741 96.9216 171.894 107.719 172.194 126.932C172.409 141.797 161.191 156.468 144.411 163.818C143.462 164.233 142.38 164.766 141.158 165.367C135.764 168.023 127.646 172.02 116.291 173.125C102.714 174.447 84.4062 171.59 61.102 156.529C61.3062 155.939 61.5621 155.209 61.8486 154.415C62.5748 152.402 63.468 150.06 64.2019 148.517L64.2043 148.512C64.7686 147.317 66.0927 144.927 67.3172 142.769C67.921 141.704 68.4877 140.719 68.9036 139.999C69.1115 139.639 69.2815 139.346 69.3994 139.143L69.5354 138.909L69.5568 138.873C70.8909 136.838 72.3404 134.883 73.8978 133.015C73.9904 133.117 74.0873 133.222 74.1883 133.33C75.4511 134.672 77.3772 136.434 80.0833 138.196C85.5122 141.73 94.0081 145.213 106.437 145.368C119.76 145.543 128.892 141.098 134.706 136.533C137.601 134.26 139.657 131.97 140.997 130.236C141.667 129.368 142.16 128.636 142.491 128.112C142.656 127.85 142.781 127.64 142.867 127.489C142.885 127.459 142.9 127.431 142.915 127.406C142.936 127.368 142.954 127.336 142.968 127.31C142.98 127.288 142.99 127.27 142.997 127.256L143.007 127.238L143.01 127.232L143.011 127.229C143.012 127.228 143.013 127.227 141.241 126.298ZM141.241 126.298L142.914 125.201L143.559 126.185L143.013 127.227L141.241 126.298Z" fill="white" stroke="#F25B3D" stroke-width="4"/>
</svg>
